<?xml version="1.0" encoding="UTF-8"?>
<svg xmlns="http://www.w3.org/2000/svg" version="1.1" viewBox="0 0 378.7 402.5">
  <!-- Generator: Adobe Illustrator 29.1.0, SVG Export Plug-In . SVG Version: 2.1.0 Build 142)  -->
  <defs>
    <style>
      .st0 {
        fill: #d94652;
      }

      .st1 {
        fill: #fe5655;
      }

      .st2 {
        isolation: isolate;
      }

      .st3 {
        mix-blend-mode: multiply;
      }

      .st3, .st4 {
        fill: #89d0f7;
      }
    </style>
  </defs>
  <g class="st2">
    <g id="Layer_1">
      <g>
        <g>
          <path class="st1" d="M314.5,175.2l-64.2-9,6.8-17.6,47.2,7.7c9.3,1.5,13.7,11.3,10.2,19Z"/>
          <path class="st1" d="M266,26.4l-4.4,11.1L54.3,214.6l-17.8-3.3c-10.1-1.9-13.5-14.6-5.7-21.4L241.1,8.6c12.5-10.8,31.1,2.5,24.9,17.8Z"/>
          <path class="st1" d="M148.8,254.4l-36.5,94-12.6,10.7c-10.9,9.3-27-2.1-21.9-15.5l36.4-95.2,34.6,6.1Z"/>
          <path class="st4" d="M298,42.6l-40.9,105.9-37.6-6.1,42-105,13.2-11.3c11.6-9.9,28.7,2.2,23.2,16.4Z"/>
          <path class="st0" d="M314.5,175.2c-.8,1.7-2,3.4-3.6,4.8l-198.6,168.4,36.5-94-34.6-6.1,8-21-67.9-12.7L261.6,37.5l-42,105,37.6,6.1-6.8,17.6,64.2,9Z"/>
          <path class="st3" d="M122.2,227.3l-8,21-56.9-10c-10.1-1.9-13.5-14.6-5.7-21.4l2.8-2.4,67.9,12.7Z"/>
          <path class="st3" d="M346.4,206.4l-222.9,187.9c-11.4,9.6-28.2-2.3-22.8-16.3l11.5-29.7,198.6-168.4c1.6-1.4,2.8-3,3.6-4.8l24.1,3.4c13.6,1.9,18.4,19.1,7.8,27.8Z"/>
        </g>
        <path class="st1" d="M325.8,122.4c0,1.2-.7,2.2-1.8,2.6l-11.9,4.4c-.3.1-.5.3-.7.7l-4.4,11.9c-.4,1.1-1.4,1.8-2.6,1.8s-2.2-.7-2.6-1.8l-4.4-11.9c-.1-.3-.4-.5-.7-.7l-11.9-4.4c-1.1-.4-1.8-1.4-1.8-2.6s.7-2.2,1.8-2.6l11.9-4.4c.3-.1.5-.4.7-.7l4.4-11.9c.4-1.1,1.4-1.8,2.6-1.8s2.2.7,2.6,1.8l4.4,11.9c.1.3.3.5.7.7l11.9,4.4c1.1.4,1.8,1.4,1.8,2.6Z"/>
      </g>
    </g>
  </g>
</svg>